<svg width="512" height="514" viewBox="0 0 512 514" fill="none" xmlns="http://www.w3.org/2000/svg">
<path fill-rule="evenodd" clip-rule="evenodd" d="M253.678 17.3534H257.748V92.2284L324.182 53.932L326.217 57.4518L257.748 96.9214V175.861L254.982 175.861L253.678 175.861L253.678 97.3426L184.478 57.4518L186.514 53.932L253.678 92.6495L253.678 17.3534ZM324.182 297.79H326.947V218.008L393.01 179.925H393.021L462.58 220.024L464.615 216.504L397.086 177.576L465.568 138.098L463.532 134.579L396.147 173.424V98.6393H392.076L392.076 175.771L323.816 215.12L258.22 177.306L256.185 180.826L319.746 217.466L188.549 293.097V218.85L257.018 179.381L254.982 175.861L184.478 216.504V295.443L117.787 333.888L48.1152 293.725L46.0799 297.245L113.716 336.235L46.1235 375.2L48.1588 378.719L114.549 340.448L114.549 419.174H118.619L118.619 338.102L185.496 299.549L184.478 301.309L253.678 341.2V416.406L184.478 456.297L186.514 459.817L253.678 421.099V496.94H257.748V421.52L324.181 459.817L326.217 456.297L257.748 416.827V340.779L326.217 301.309L324.182 297.79ZM324.182 297.79L255.348 337.47L187.531 298.376L188.549 297.79L322.877 220.354L322.877 297.79H324.182ZM392.076 416.286H396.147V339.482L463.885 378.531L465.92 375.011L397.999 335.857L464.981 297.245L462.945 293.725L393.929 333.511L331.043 297.259L329.007 300.779L392.076 337.136L392.076 416.286ZM118.984 98.6393H114.914V173.725L48.1152 135.218L46.0799 138.738L114.551 178.209L46.0799 217.68L48.1152 221.2L118.619 180.557L118.617 180.553L182.824 217.566L184.859 214.046L118.984 176.071V98.6393Z" fill="#2A2A2A"/>
<path d="M257.748 17.3534H274.248V0.853394H257.748V17.3534ZM253.678 17.3534V0.853394H237.178L237.178 17.3534L253.678 17.3534ZM257.748 92.2284H241.248V120.785L265.989 106.523L257.748 92.2284ZM324.182 53.932L338.465 45.6725L330.217 31.4076L315.941 39.6371L324.182 53.932ZM326.217 57.4518L334.457 71.7467L348.771 63.4952L340.501 49.1922L326.217 57.4518ZM257.748 96.9214L249.508 82.6265L241.248 87.3878V96.9214H257.748ZM257.748 175.861L257.748 192.361L274.248 192.361V175.861H257.748ZM254.982 175.861L254.982 159.361L254.982 159.361L254.982 175.861ZM253.678 175.861L237.178 175.861L237.178 192.361L253.678 192.361L253.678 175.861ZM253.678 97.3426L270.178 97.3426L270.178 87.809L261.918 83.0477L253.678 97.3426ZM184.478 57.4518L170.195 49.1923L161.924 63.4952L176.238 71.7467L184.478 57.4518ZM186.514 53.932L194.754 39.6371L180.478 31.4076L172.23 45.6725L186.514 53.932ZM253.678 92.6495L245.437 106.944L270.178 121.206L270.178 92.6495L253.678 92.6495ZM326.947 297.79V314.29H343.447V297.79H326.947ZM326.947 218.008L318.707 203.713L310.447 208.474V218.008H326.947ZM393.01 179.925V163.425H388.595L384.77 165.63L393.01 179.925ZM393.021 179.925L401.261 165.63L397.436 163.425H393.021V179.925ZM462.58 220.024L454.34 234.318L468.615 242.548L476.864 228.283L462.58 220.024ZM464.615 216.504L478.899 224.763L487.17 210.46L472.856 202.209L464.615 216.504ZM397.086 177.576L388.846 163.281L364.048 177.576L388.846 191.87L397.086 177.576ZM465.568 138.098L473.808 152.393L488.122 144.142L479.852 129.839L465.568 138.098ZM463.532 134.579L477.816 126.319L469.568 112.054L455.292 120.284L463.532 134.579ZM396.147 173.424H379.647V201.981L404.387 187.719L396.147 173.424ZM396.147 98.6393H412.647V82.1393H396.147V98.6393ZM392.076 98.6393V82.1393H375.576L375.576 98.6393L392.076 98.6393ZM392.076 175.771L400.317 190.065L408.576 185.304L408.576 175.771L392.076 175.771ZM323.816 215.12L315.576 229.415L323.816 234.165L332.057 229.415L323.816 215.12ZM258.22 177.306L266.461 163.011L252.185 154.782L243.936 169.047L258.22 177.306ZM256.185 180.826L241.901 172.566L233.63 186.869L247.944 195.121L256.185 180.826ZM319.746 217.466L327.986 231.761L352.784 217.466L327.986 203.172L319.746 217.466ZM188.549 293.097H172.049V321.653L196.789 307.391L188.549 293.097ZM188.549 218.85L180.308 204.555L172.049 209.317V218.85H188.549ZM257.018 179.381L265.258 193.675L279.572 185.424L271.302 171.121L257.018 179.381ZM184.478 216.504L176.238 202.209L167.978 206.97V216.504H184.478ZM184.478 295.443L192.719 309.738L200.978 304.977V295.443H184.478ZM117.787 333.888L109.546 348.183L117.787 352.934L126.027 348.183L117.787 333.888ZM48.1152 293.725L56.3557 279.43L42.0798 271.201L33.8313 285.466L48.1152 293.725ZM46.0799 297.245L31.796 288.986L23.5255 303.288L37.8395 311.54L46.0799 297.245ZM113.716 336.235L121.957 350.53L146.754 336.235L121.957 321.94L113.716 336.235ZM46.1235 375.2L37.883 360.905L23.5691 369.156L31.8396 383.459L46.1235 375.2ZM48.1588 378.719L33.8749 386.979L42.1234 401.244L56.3993 393.014L48.1588 378.719ZM114.549 340.448L131.049 340.448L131.049 311.891L106.308 326.153L114.549 340.448ZM114.549 419.174L98.0485 419.174L98.0485 435.674H114.549V419.174ZM118.619 419.174V435.674H135.119L135.119 419.174L118.619 419.174ZM118.619 338.102L110.379 323.807L102.119 328.568L102.119 338.102L118.619 338.102ZM185.496 299.549L199.78 307.809L230.605 254.501L177.256 285.255L185.496 299.549ZM184.478 301.309L170.195 293.05L161.924 307.353L176.238 315.604L184.478 301.309ZM253.678 341.2H270.178V331.667L261.918 326.905L253.678 341.2ZM253.678 416.406L261.918 430.701L270.178 425.94V416.406H253.678ZM184.478 456.297L176.238 442.002L161.924 450.254L170.195 464.557L184.478 456.297ZM186.514 459.817L172.23 468.076L180.478 482.341L194.754 474.112L186.514 459.817ZM253.678 421.099H270.178V392.542L245.437 406.804L253.678 421.099ZM253.678 496.94H237.178V513.44H253.678V496.94ZM257.748 496.94V513.44H274.248V496.94H257.748ZM257.748 421.52L265.989 407.226L241.248 392.964V421.52H257.748ZM324.181 459.817L315.941 474.112L330.217 482.341L338.465 468.076L324.181 459.817ZM326.217 456.297L340.501 464.557L348.771 450.254L334.457 442.002L326.217 456.297ZM257.748 416.827H241.248V426.361L249.508 431.122L257.748 416.827ZM257.748 340.779L249.508 326.484L241.248 331.245V340.779H257.748ZM326.217 301.309L334.457 315.604L348.771 307.353L340.501 293.05L326.217 301.309ZM255.348 337.47L247.107 351.765L255.348 356.515L263.588 351.765L255.348 337.47ZM187.531 298.376L179.291 284.081L154.493 298.376L179.291 312.671L187.531 298.376ZM188.549 297.79L180.308 283.495L180.308 283.495L188.549 297.79ZM322.877 220.354L339.377 220.354L339.377 191.798L314.636 206.06L322.877 220.354ZM322.877 297.79L306.377 297.79L306.377 314.29H322.877V297.79ZM396.147 416.286V432.786H412.647V416.286H396.147ZM392.076 416.286L375.576 416.286L375.576 432.786H392.076V416.286ZM396.147 339.482L404.387 325.187L379.647 310.925V339.482H396.147ZM463.885 378.531L455.644 392.826L469.92 401.055L478.169 386.79L463.885 378.531ZM465.92 375.011L480.204 383.271L488.474 368.968L474.16 360.716L465.92 375.011ZM397.999 335.857L389.759 321.562L364.961 335.857L389.759 350.152L397.999 335.857ZM464.981 297.245L473.221 311.54L487.535 303.288L479.265 288.986L464.981 297.245ZM462.945 293.725L477.229 285.466L468.981 271.201L454.705 279.43L462.945 293.725ZM393.929 333.511L385.688 347.806L393.929 352.556L402.169 347.806L393.929 333.511ZM331.043 297.259L339.283 282.964L325.007 274.735L316.759 289L331.043 297.259ZM329.007 300.779L314.723 292.519L306.453 306.822L320.767 315.074L329.007 300.779ZM392.076 337.136L408.576 337.136L408.576 327.602L400.317 322.841L392.076 337.136ZM114.914 98.6393V82.1393H98.4139V98.6393H114.914ZM118.984 98.6393H135.484V82.1393H118.984V98.6393ZM114.914 173.725L106.673 188.02L131.414 202.282V173.725H114.914ZM48.1152 135.218L56.3557 120.923L42.0798 112.693L33.8312 126.958L48.1152 135.218ZM46.0799 138.738L31.796 130.478L23.5254 144.781L37.8394 153.033L46.0799 138.738ZM114.551 178.209L122.792 192.504L147.589 178.209L122.792 163.914L114.551 178.209ZM46.0799 217.68L37.8395 203.385L23.5255 211.637L31.796 225.939L46.0799 217.68ZM48.1152 221.2L33.8313 229.459L42.0798 243.724L56.3557 235.495L48.1152 221.2ZM118.619 180.557L126.86 194.852L141.193 186.589L132.892 172.278L118.619 180.557ZM118.617 180.553L126.857 166.258L73.3609 135.419L104.344 188.832L118.617 180.553ZM182.824 217.566L174.583 231.86L188.859 240.09L197.108 225.825L182.824 217.566ZM184.859 214.046L199.143 222.305L207.414 208.002L193.1 199.751L184.859 214.046ZM118.984 176.071H102.484V185.605L110.744 190.366L118.984 176.071ZM257.748 0.853394H253.678V33.8534H257.748V0.853394ZM274.248 92.2284V17.3534H241.248V92.2284H274.248ZM315.941 39.6371L249.508 77.9335L265.989 106.523L332.422 68.2269L315.941 39.6371ZM340.501 49.1922L338.465 45.6725L309.898 62.1915L311.933 65.7113L340.501 49.1922ZM265.989 111.216L334.457 71.7467L317.976 43.1569L249.508 82.6265L265.989 111.216ZM274.248 175.861V96.9214H241.248V175.861H274.248ZM254.982 192.361L257.748 192.361L257.748 159.361L254.982 159.361L254.982 192.361ZM253.678 192.361L254.983 192.361L254.982 159.361L253.677 159.361L253.678 192.361ZM237.178 97.3426L237.178 175.861L270.178 175.861L270.178 97.3426L237.178 97.3426ZM176.238 71.7467L245.437 111.637L261.918 83.0477L192.719 43.1569L176.238 71.7467ZM172.23 45.6725L170.195 49.1923L198.762 65.7113L200.798 62.1915L172.23 45.6725ZM261.918 78.3546L194.754 39.6371L178.273 68.2269L245.437 106.944L261.918 78.3546ZM237.178 17.3534L237.178 92.6495L270.178 92.6495L270.178 17.3534L237.178 17.3534ZM324.182 314.29H326.947V281.29H324.182V314.29ZM343.447 297.79V218.008H310.447V297.79H343.447ZM335.188 232.303L401.251 194.22L384.77 165.63L318.707 203.713L335.188 232.303ZM393.01 196.425H393.021V163.425H393.01V196.425ZM384.78 194.22L454.34 234.318L470.821 205.729L401.261 165.63L384.78 194.22ZM476.864 228.283L478.899 224.763L450.331 208.244L448.296 211.764L476.864 228.283ZM472.856 202.209L405.327 163.281L388.846 191.87L456.375 230.799L472.856 202.209ZM405.327 191.87L473.808 152.393L457.327 123.803L388.846 163.281L405.327 191.87ZM479.852 129.839L477.816 126.319L449.249 142.838L451.284 146.358L479.852 129.839ZM455.292 120.284L387.906 159.129L404.387 187.719L471.773 148.874L455.292 120.284ZM412.647 173.424V98.6393H379.647V173.424H412.647ZM396.147 82.1393H392.076V115.139H396.147V82.1393ZM375.576 98.6393L375.576 175.771L408.576 175.771L408.576 98.6393L375.576 98.6393ZM383.836 161.476L315.576 200.825L332.057 229.415L400.317 190.065L383.836 161.476ZM332.057 200.825L266.461 163.011L249.98 191.601L315.576 229.415L332.057 200.825ZM243.936 169.047L241.901 172.566L270.469 189.085L272.504 185.566L243.936 169.047ZM247.944 195.121L311.505 231.761L327.986 203.172L264.425 166.531L247.944 195.121ZM311.505 203.172L180.308 278.802L196.789 307.391L327.986 231.761L311.505 203.172ZM205.049 293.097V218.85H172.049V293.097H205.049ZM196.789 233.145L265.258 193.675L248.777 165.086L180.308 204.555L196.789 233.145ZM271.302 171.121L269.266 167.601L240.698 184.12L242.734 187.64L271.302 171.121ZM246.742 161.566L176.238 202.209L192.719 230.799L263.223 190.156L246.742 161.566ZM167.978 216.504V295.443H200.978V216.504H167.978ZM176.238 281.148L109.546 319.594L126.027 348.183L192.719 309.738L176.238 281.148ZM126.027 319.594L56.3557 279.43L39.8747 308.02L109.546 348.183L126.027 319.594ZM33.8313 285.466L31.796 288.986L60.3639 305.505L62.3991 301.985L33.8313 285.466ZM37.8395 311.54L105.476 350.53L121.957 321.94L54.3204 282.95L37.8395 311.54ZM105.476 321.94L37.883 360.905L54.364 389.495L121.957 350.53L105.476 321.94ZM31.8396 383.459L33.8749 386.979L62.4427 370.46L60.4074 366.94L31.8396 383.459ZM56.3993 393.014L122.789 354.743L106.308 326.153L39.9183 364.425L56.3993 393.014ZM98.0485 340.448L98.0485 419.174L131.049 419.174L131.049 340.448L98.0485 340.448ZM114.549 435.674H118.619V402.674H114.549V435.674ZM135.119 419.174L135.119 338.102L102.119 338.102L102.119 419.174L135.119 419.174ZM126.86 352.397L193.737 313.844L177.256 285.255L110.379 323.807L126.86 352.397ZM171.212 291.29L170.195 293.05L198.762 309.569L199.78 307.809L171.212 291.29ZM176.238 315.604L245.437 355.495L261.918 326.905L192.719 287.014L176.238 315.604ZM270.178 416.406V341.2H237.178V416.406H270.178ZM192.719 470.592L261.918 430.701L245.437 402.111L176.238 442.002L192.719 470.592ZM200.798 451.557L198.762 448.038L170.195 464.557L172.23 468.076L200.798 451.557ZM245.437 406.804L178.273 445.522L194.754 474.112L261.918 435.394L245.437 406.804ZM270.178 496.94V421.099H237.178V496.94H270.178ZM257.748 480.44H253.678V513.44H257.748V480.44ZM241.248 421.52V496.94H274.248V421.52H241.248ZM332.422 445.522L265.989 407.226L249.508 435.815L315.941 474.112L332.422 445.522ZM311.933 448.037L309.898 451.557L338.465 468.076L340.501 464.557L311.933 448.037ZM249.508 431.122L317.976 470.592L334.457 442.002L265.989 402.532L249.508 431.122ZM241.248 340.779V416.827H274.248V340.779H241.248ZM265.989 355.074L334.457 315.604L317.976 287.014L249.508 326.484L265.989 355.074ZM340.501 293.05L338.466 289.53L309.898 306.049L311.933 309.569L340.501 293.05ZM263.588 351.765L332.422 312.085L315.941 283.495L247.107 323.175L263.588 351.765ZM179.291 312.671L247.107 351.765L263.588 323.175L195.772 284.081L179.291 312.671ZM180.308 283.495L179.291 284.081L195.772 312.671L196.789 312.084L180.308 283.495ZM314.636 206.06L180.308 283.495L196.789 312.085L331.117 234.649L314.636 206.06ZM339.377 297.79L339.377 220.354L306.377 220.354L306.377 297.79L339.377 297.79ZM324.182 281.29H322.877V314.29H324.182V281.29ZM396.147 399.786H392.076V432.786H396.147V399.786ZM379.647 339.482V416.286H412.647V339.482H379.647ZM472.125 364.236L404.387 325.187L387.906 353.777L455.644 392.826L472.125 364.236ZM451.636 366.752L449.601 370.271L478.169 386.79L480.204 383.271L451.636 366.752ZM389.759 350.152L457.679 389.306L474.16 360.716L406.24 321.562L389.759 350.152ZM456.74 282.95L389.759 321.562L406.24 350.152L473.221 311.54L456.74 282.95ZM448.661 301.985L450.697 305.505L479.265 288.986L477.229 285.466L448.661 301.985ZM402.169 347.806L471.186 308.02L454.705 279.43L385.688 319.216L402.169 347.806ZM322.802 311.554L385.688 347.806L402.169 319.216L339.283 282.964L322.802 311.554ZM343.291 309.039L345.326 305.519L316.759 289L314.723 292.519L343.291 309.039ZM400.317 322.841L337.248 286.484L320.767 315.074L383.836 351.431L400.317 322.841ZM408.576 416.286L408.576 337.136L375.576 337.136L375.576 416.286L408.576 416.286ZM114.914 115.139H118.984V82.1393H114.914V115.139ZM131.414 173.725V98.6393H98.4139V173.725H131.414ZM39.8747 149.513L106.673 188.02L123.154 159.43L56.3557 120.923L39.8747 149.513ZM60.3638 146.997L62.3991 143.477L33.8312 126.958L31.796 130.478L60.3638 146.997ZM122.792 163.914L54.3204 124.443L37.8394 153.033L106.311 192.504L122.792 163.914ZM54.3204 231.975L122.792 192.504L106.311 163.914L37.8395 203.385L54.3204 231.975ZM62.3991 212.94L60.3639 209.42L31.796 225.939L33.8313 229.459L62.3991 212.94ZM110.379 166.262L39.8747 206.905L56.3557 235.495L126.86 194.852L110.379 166.262ZM104.344 188.832L104.347 188.836L132.892 172.278L132.889 172.273L104.344 188.832ZM191.064 203.271L126.857 166.258L110.376 194.847L174.583 231.86L191.064 203.271ZM170.575 205.786L168.54 209.306L197.108 225.825L199.143 222.305L170.575 205.786ZM110.744 190.366L176.619 228.341L193.1 199.751L127.225 161.777L110.744 190.366ZM102.484 98.6393V176.071H135.484V98.6393H102.484Z" fill="#2A2A2A"/>
</svg>
